<svg width="69" height="24" viewBox="0 0 69 24" fill="none" xmlns="http://www.w3.org/2000/svg">
<path d="M15.3381 8.3197H18.8162V4.46029C18.8162 3.38566 18.3078 2.84257 17.2678 2.84257H16.8749C15.8465 2.84257 15.3266 3.38566 15.3266 4.46029L15.3381 8.3197ZM15.3381 10.7694L15.3497 14.9986C15.3497 16.0732 15.8697 16.6047 16.8981 16.6047H17.3487C18.3771 16.6047 18.8971 16.0732 18.8971 14.9986V12.9186H21.2659V14.8946C21.2659 17.61 19.9486 18.9966 17.3372 18.9966H16.8172C14.2057 18.9966 12.8884 17.6216 12.8884 15.2181V4.87628C12.8884 1.83728 14.2057 0.462219 16.8172 0.462219H17.3372C19.9486 0.462219 21.2659 1.83728 21.2659 4.55273L21.2543 10.7578L15.3381 10.7694Z" fill="#333333"/>
<path d="M25.2986 15.6456C25.9688 16.2465 26.743 16.5816 27.5518 16.5816C28.4531 16.5816 28.9731 16.1425 28.9731 15.1025V4.35628C28.9731 3.31632 28.4531 2.87722 27.5518 2.87722C26.743 2.87722 25.9688 3.21232 25.2986 3.81319V15.6456ZM22.8489 0.681747H25.2986V1.84881C25.8763 1.21328 26.8701 0.473755 28.2913 0.473755C30.3828 0.473755 31.4112 1.91815 31.4112 4.0674V15.4145C31.4112 17.5638 30.3828 19.0082 28.2913 19.0082C26.8701 19.0082 25.8763 18.3033 25.2986 17.7024V23.5493H22.8489V0.681747Z" fill="#333333"/>
<path d="M38.7489 15.7381V9.77564L36.5303 10.6538C35.629 11.0236 35.3401 11.4974 35.3401 12.5373V15.2874C35.3401 16.1656 35.7561 16.5932 36.5303 16.5932C37.2699 16.5932 37.9516 16.3158 38.7489 15.7381ZM32.8905 12.4911C32.8905 10.2378 33.5953 9.33654 35.4673 8.66634L38.7489 7.48772V4.46028C38.7489 3.38565 38.2289 2.81945 37.2005 2.81945H36.8076C35.7792 2.81945 35.2593 3.38565 35.2593 4.46028V7.02551H32.8789V4.56427C32.8789 1.84882 34.1962 0.473755 36.8076 0.473755H37.2699C39.8813 0.473755 41.1986 1.84882 41.1986 4.56427V18.8002H38.7489V17.6562C38.0787 18.3264 37.1659 18.9966 35.7561 18.9966C33.7918 18.9966 32.8905 17.818 32.8905 15.8074V12.4911Z" fill="#333333"/>
<path d="M51.0896 18.8118H48.6399V4.19453C48.6399 3.29323 48.224 2.8888 47.4844 2.8888C46.8142 2.8888 46.0978 3.15456 45.2312 3.7901V18.8002H42.7815V0.681767H45.2312V1.84883C45.9476 1.14397 46.872 0.462219 48.224 0.462219C49.4835 0.462219 50.3154 1.00531 50.7661 1.94128C51.6443 1.16708 52.6727 0.462219 54.0824 0.462219C55.9774 0.462219 56.9481 1.67551 56.9481 3.65143V18.7887H54.4984V4.19453C54.4984 3.29323 54.0824 2.8888 53.3429 2.8888C52.6727 2.8888 51.9563 3.15456 51.0896 3.7901V18.8118Z" fill="#333333"/>
<path d="M3.47095 8.57394V11.0352L9.75694 17.1941V13.7737L5.64331 9.77567L9.75694 5.6736V2.33417L3.47095 8.57394Z" fill="#333333"/>
<path d="M60.0564 5.6736L64.17 9.77567L60.0564 13.7969V17.1941L66.3424 11.0352V8.57394L60.0564 2.33417V5.6736Z" fill="#333333"/>
</svg>
