<svg width="25" height="24" viewBox="0 0 25 24" fill="none" xmlns="http://www.w3.org/2000/svg">
<g id="Group 2787">
<path id="Union" fill-rule="evenodd" clip-rule="evenodd" d="M9.97656 0H9.22656C8.81235 0 8.47656 0.335786 8.47656 0.75V1.5C8.47656 1.91421 8.81235 2.25 9.22656 2.25H9.97656V6.66671L3.37011 18.4115C1.96399 20.9113 3.77042 24 6.63852 24H20.8147C23.6828 24 25.4892 20.9113 24.0831 18.4115L17.4766 6.66662V2.25H18.2266C18.6408 2.25 18.9766 1.91421 18.9766 1.5V0.75C18.9766 0.335786 18.6408 0 18.2266 0H17.4766H9.97656Z" fill="white"/>
<path id="Union (Stroke)" fill-rule="evenodd" clip-rule="evenodd" d="M12.2266 7.2561L5.33115 19.5146C4.76871 20.5145 5.49128 21.75 6.63852 21.75H20.8147C21.9619 21.75 22.6845 20.5145 22.122 19.5146L15.2266 7.25601V2.25H12.2266V7.2561ZM18.2266 0C18.6408 0 18.9766 0.335786 18.9766 0.75V1.5C18.9766 1.91421 18.6408 2.25 18.2266 2.25H17.4766V6.66662L24.0831 18.4115C25.4892 20.9113 23.6828 24 20.8147 24H6.63852C3.77042 24 1.96399 20.9113 3.37011 18.4115L9.97656 6.66671V2.25H9.22656C8.81235 2.25 8.47656 1.91421 8.47656 1.5V0.75C8.47656 0.335786 8.81235 0 9.22656 0H18.2266Z" fill="#333333"/>
<g id="Group 2786">
<path id="Ellipse 48" d="M14.787 10.2471C15.7519 13.848 13.615 17.5492 10.0141 18.5141C6.41316 19.479 2.71189 17.342 1.74703 13.7411C0.782171 10.1402 2.9191 6.43896 6.52 5.4741C10.1209 4.50924 13.8222 6.64618 14.787 10.2471Z" fill="white"/>
<path id="Ellipse 48 (Stroke)" fill-rule="evenodd" clip-rule="evenodd" d="M9.43171 16.3408C11.8323 15.6975 13.2569 13.23 12.6137 10.8294C11.9705 8.42882 9.50294 7.0042 7.10234 7.64743C4.70175 8.29067 3.27712 10.7582 3.92036 13.1588C4.5636 15.5594 7.03112 16.984 9.43171 16.3408ZM10.0141 18.5141C13.615 17.5492 15.7519 13.848 14.787 10.2471C13.8222 6.64618 10.1209 4.50924 6.52 5.4741C2.9191 6.43896 0.782171 10.1402 1.74703 13.7411C2.71189 17.342 6.41316 19.479 10.0141 18.5141Z" fill="#333333"/>
<path id="Union_2" fill-rule="evenodd" clip-rule="evenodd" d="M15.4815 15.1664L13.2736 13.8917L12.1486 15.8402L14.3567 17.1151C14.4511 17.5714 14.7325 17.9868 15.1678 18.2381L16.4588 18.9835C17.2681 19.4508 18.303 19.1735 18.7703 18.3641C19.2375 17.5548 18.9602 16.5199 18.1509 16.0526L16.8599 15.3073C16.4246 15.0559 15.924 15.02 15.4815 15.1664Z" fill="#333333"/>
</g>
</g>
</svg>
